HIERARCHY
ROOT hip
{
	OFFSET 0.000000 0.000000 0.000000
	CHANNELS 6 Xposition Yposition Zposition Zrotation Yrotation Xrotation 
	JOINT lhipjoint
	{
		OFFSET 0.000000 0.000000 0.000000
		CHANNELS 3 Zrotation Yrotation Xrotation
		JOINT lfemur
		{
			OFFSET 1.363060 -1.794630 0.839290
			CHANNELS 3 Zrotation Yrotation Xrotation
			JOINT ltibia
			{
				OFFSET 2.448110 -6.726130 0.000000
				CHANNELS 3 Zrotation Yrotation Xrotation
				JOINT lfoot
				{
					OFFSET 2.562200 -7.039590 0.000000
					CHANNELS 3 Zrotation Yrotation Xrotation
					JOINT ltoes
					{
						OFFSET 0.157640 -0.433110 2.322550
						CHANNELS 3 Zrotation Yrotation Xrotation
						End Site
						{
							OFFSET 0.000000 0.000000 0.000000
						}
					}
				}
			}
		}
	}
	JOINT rhipjoint
	{
		OFFSET 0.000000 0.000000 0.000000
		CHANNELS 3 Zrotation Yrotation Xrotation
		JOINT rfemur
		{
			OFFSET -1.305520 -1.794630 0.839290
			CHANNELS 3 Zrotation Yrotation Xrotation
			JOINT rtibia
			{
				OFFSET -2.542530 -6.985550 0.000000
				CHANNELS 3 Zrotation Yrotation Xrotation
				JOINT rfoot
				{
					OFFSET -2.568260 -7.056230 0.000000
					CHANNELS 3 Zrotation Yrotation Xrotation
					JOINT rtoes
					{
						OFFSET -0.164730 -0.452590 2.363150
						CHANNELS 3 Zrotation Yrotation Xrotation
						End Site
						{
							OFFSET 0.000000 0.000000 0.000000
						}
					}
				}
			}
		}
	}
	JOINT lowerback
	{
		OFFSET 0.000000 0.000000 0.000000
		CHANNELS 3 Zrotation Yrotation Xrotation
		JOINT upperback
		{
			OFFSET 0.028270 2.035590 -0.193380
			CHANNELS 3 Zrotation Yrotation Xrotation
			JOINT thorax
			{
				OFFSET 0.056720 2.048850 -0.042750
				CHANNELS 3 Zrotation Yrotation Xrotation
				JOINT lowerneck
				{
					OFFSET 0.000000 0.000000 0.000000
					CHANNELS 3 Zrotation Yrotation Xrotation
					JOINT upperneck
					{
						OFFSET -0.054170 1.746240 0.172020
						CHANNELS 3 Zrotation Yrotation Xrotation
						JOINT head
						{
							OFFSET 0.104070 1.761360 -0.123970
							CHANNELS 3 Zrotation Yrotation Xrotation
							End Site
							{
								OFFSET 0.000000 0.000000 0.000000
							}
						}
					}
				}
				JOINT lclavicle
				{
					OFFSET 0.000000 0.000000 0.000000
					CHANNELS 3 Zrotation Yrotation Xrotation
					JOINT lhumerus
					{
						OFFSET 3.362410 1.200890 -0.311210
						CHANNELS 3 Zrotation Yrotation Xrotation
						JOINT lradius
						{
							OFFSET 4.983000 -0.000000 -0.000000
							CHANNELS 3 Zrotation Yrotation Xrotation
							JOINT lwrist
							{
								OFFSET 3.483560 -0.000000 -0.000000
								CHANNELS 3 Zrotation Yrotation Xrotation
								JOINT lhand
								{
									OFFSET 0.000000 0.000000 0.000000
									CHANNELS 3 Zrotation Yrotation Xrotation
									JOINT lfingers
									{
										OFFSET 0.715260 -0.000000 -0.000000
										CHANNELS 3 Zrotation Yrotation Xrotation
										End Site
										{
											OFFSET 0.000000 0.000000 0.000000
										}
									}
								}
								JOINT lthumb
								{
									OFFSET 0.000000 0.000000 0.000000
									CHANNELS 3 Zrotation Yrotation Xrotation
									End Site
									{
										OFFSET 0.000000 0.000000 0.000000
									}
								}
							}
						}
					}
				}
				JOINT rclavicle
				{
					OFFSET 0.000000 0.000000 0.000000
					CHANNELS 3 Zrotation Yrotation Xrotation
					JOINT rhumerus
					{
						OFFSET -3.136600 1.374050 -0.404650
						CHANNELS 3 Zrotation Yrotation Xrotation
						JOINT rradius
						{
							OFFSET -5.241900 -0.000000 -0.000000
							CHANNELS 3 Zrotation Yrotation Xrotation
							JOINT rwrist
							{
								OFFSET -3.444170 -0.000000 -0.000000
								CHANNELS 3 Zrotation Yrotation Xrotation
								JOINT rhand
								{
									OFFSET 0.000000 0.000000 0.000000
									CHANNELS 3 Zrotation Yrotation Xrotation
									JOINT rfingers
									{
										OFFSET -0.622530 -0.000000 -0.000000
										CHANNELS 3 Zrotation Yrotation Xrotation
										End Site
										{
											OFFSET 0.000000 0.000000 0.000000
										}
									}
								}
								JOINT rthumb
								{
									OFFSET 0.000000 0.000000 0.000000
									CHANNELS 3 Zrotation Yrotation Xrotation
									End Site
									{
										OFFSET 0.000000 0.000000 0.000000
									}
								}
							}
						}
					}
				}
			}
		}
	}
}
MOTION
Frames: 12
Frame Time: 0.008333
-28.208449 18.784356 9.125674 -3.371652 9.946495 2.458631 7.406475 6.297001 2.416153 -19.626674 -8.966042 -9.462694 1.171010 8.125529 28.972684 0.228218 2.810037 3.423599 0.531700 -4.672400 -12.976500 -9.711256 -7.024914 2.026303 34.517537 12.377131 -7.422019 -1.908093 -8.130100 29.735487 -0.865361 0.880054 2.399342 -0.147800 2.477400 -6.827100 3.670716 1.078319 -11.987383 0.961774 0.412260 -1.546293 -1.694189 0.535928 2.315663 2.303369 8.508503 8.774919 3.630004 10.260053 10.781128 -3.588600 5.764900 -1.651300 7.968837 -1.695953 4.404596 -80.622644 0.461280 60.478431 9.833995 -29.367642 -1.707520 0.317697 0.374224 -14.020169 16.700752 -12.715241 -3.776400 -7.125000 0.000000 0.000000 -7.595600 16.485500 5.174100 -6.161149 2.213650 4.299001 83.996644 1.393096 -59.504263 4.226435 -3.385596 -0.575345 1.139223 1.389856 111.077350 -20.211356 14.837701 -4.765800 7.125000 0.000000 0.000000 6.111900 -14.862300 4.365100 
-28.216249 18.782920 9.123314 -3.334286 10.043174 2.431919 7.403855 6.296074 2.417316 -19.625823 -8.981253 -9.451718 1.167187 8.121058 28.962456 0.254960 2.743403 3.475371 0.522700 -4.633400 -12.866000 -9.712358 -7.026972 2.024387 34.515892 12.356582 -7.412246 -1.913023 -8.135206 29.754758 -0.849426 0.822022 2.337391 -0.148400 2.482300 -6.840500 3.657728 1.033553 -11.922243 0.967677 0.353685 -1.547429 -1.652070 0.507546 2.299892 2.205025 8.581541 8.766480 3.611117 10.350502 10.778109 -3.572200 5.810000 -1.644700 7.949298 -1.700764 4.401305 -80.584971 0.325560 60.592345 10.004092 -29.538117 -1.747250 0.324153 0.391698 -14.280682 16.855962 -12.767399 -3.830900 -7.125000 0.000000 0.000000 -7.497200 16.404300 5.119200 -6.169210 2.216404 4.298075 84.003699 1.349758 -59.162477 4.363774 -3.413689 -0.574657 1.117508 1.403700 110.800066 -20.241875 14.762511 -4.755000 7.125000 0.000000 0.000000 6.091100 -14.919000 4.342600 
-28.223842 18.782509 9.120338 -3.315460 10.123477 2.423889 7.401839 6.293971 2.417395 -19.609033 -9.011038 -9.459051 1.163173 8.118606 28.951022 0.272258 2.700982 3.537626 0.519900 -4.621300 -12.831500 -9.714526 -7.026867 2.022685 34.536395 12.353244 -7.416703 -1.916772 -8.141523 29.770978 -0.823142 0.727878 2.272854 -0.158000 2.561500 -7.060100 3.673630 1.002529 -11.878622 0.972644 0.309650 -1.546816 -1.606380 0.487504 2.313823 2.055571 8.651287 8.710740 3.602319 10.436031 10.774568 -3.520800 5.849300 -1.634800 7.926236 -1.696382 4.394494 -80.580180 0.159785 60.628714 10.136000 -29.674767 -1.781590 0.330421 0.408526 -14.472624 17.022577 -12.789960 -3.880100 -7.125000 0.000000 0.000000 -7.390500 16.352400 5.053500 -6.181149 2.209560 4.294008 83.987639 1.323205 -58.840957 4.509585 -3.462217 -0.574119 1.097401 1.418027 110.493972 -20.277072 14.725792 -4.757100 7.125000 0.000000 0.000000 6.068900 -14.937400 4.324200 
-28.231128 18.781278 9.117054 -3.295383 10.222907 2.398785 7.399770 6.292506 2.416224 -19.586912 -8.995272 -9.471903 1.159386 8.115769 28.944699 0.317001 2.590845 3.625141 0.515700 -4.602700 -12.778700 -9.718343 -7.025313 2.021683 34.567693 12.399123 -7.373577 -1.920238 -8.144413 29.781118 -0.786927 0.599652 2.164750 -0.158800 2.567500 -7.076900 3.686667 0.963508 -11.825886 0.978227 0.255724 -1.545122 -1.554620 0.462252 2.324006 1.896933 8.724457 8.684653 3.595762 10.523936 10.768518 -3.467300 5.888900 -1.641300 7.899709 -1.692885 4.391118 -80.577302 0.013871 60.658911 10.261193 -29.804577 -1.814992 0.336803 0.425003 -14.697029 17.194689 -12.819626 -3.932700 -7.125000 0.000000 0.000000 -7.280300 16.293400 4.986200 -6.193835 2.200858 4.292478 83.960166 1.314193 -58.517679 4.657139 -3.518036 -0.572721 1.072935 1.432812 110.222297 -20.326263 14.628874 -4.745200 7.125000 0.000000 0.000000 6.035100 -15.012000 4.290200 
-28.238825 18.780662 9.113463 -3.260696 10.308064 2.374915 7.398981 6.290170 2.413080 -19.582709 -8.972559 -9.483097 1.156788 8.114182 28.943308 0.353888 2.499318 3.719427 0.513400 -4.592800 -12.750800 -9.721767 -7.023130 2.021888 34.587496 12.474324 -7.319107 -1.922555 -8.145266 29.784467 -0.747090 0.460623 2.068869 -0.152200 2.513500 -6.927100 3.668067 0.939925 -11.788095 0.981555 0.225545 -1.541842 -1.516080 0.447983 2.329289 1.813049 8.781374 8.707368 3.576076 10.594025 10.750519 -3.459800 5.921800 -1.667400 7.882771 -1.690378 4.394308 -80.549203 -0.129728 60.676177 10.363825 -29.912552 -1.843722 0.344235 0.437685 -14.847153 17.376031 -12.870478 -3.993300 -7.125000 0.000000 0.000000 -7.163800 16.215100 4.917400 -6.202127 2.194591 4.297001 83.979921 1.290693 -58.229952 4.786743 -3.563633 -0.571129 1.051382 1.446014 109.890732 -20.336902 14.553609 -4.728100 7.125000 0.000000 0.000000 6.027500 -15.073400 4.276800 
-28.246111 18.780867 9.110179 -3.241850 10.395371 2.361827 7.396456 6.287865 2.409937 -19.553928 -8.914069 -9.525443 1.153529 8.113535 28.940783 0.401825 2.382066 3.824850 0.513300 -4.592000 -12.748400 -9.725793 -7.021760 2.021426 34.617079 12.524840 -7.285498 -1.923956 -8.146502 29.786120 -0.708384 0.325772 1.982398 -0.152200 2.514000 -6.928400 3.665706 0.914601 -11.771657 0.986747 0.188774 -1.538489 -1.465947 0.431109 2.349021 1.708073 8.832382 8.714640 3.551588 10.655812 10.730705 -3.447200 5.949900 -1.694500 7.874118 -1.684961 4.397316 -80.581614 -0.277006 60.559575 10.388423 -29.959114 -1.858940 0.352074 0.446532 -14.862793 17.533043 -12.913849 -4.045400 -7.125000 0.000000 0.000000 -7.063300 16.149400 4.857400 -6.213488 2.184790 4.301220 84.007139 1.262232 -57.930082 4.892121 -3.565071 -0.570577 1.036628 1.454648 109.633319 -20.348901 14.517398 -4.722500 7.125000 0.000000 0.000000 6.019200 -15.099900 4.267300 
-28.252473 18.780457 9.106382 -3.206064 10.478392 2.337349 7.393646 6.286781 2.406521 -19.544771 -8.818431 -9.566505 1.150883 8.113107 28.945529 0.467217 2.220253 3.961556 0.505400 -4.557200 -12.649800 -9.728369 -7.021840 2.019411 34.621133 12.555197 -7.241886 -1.924794 -8.144080 29.781179 -0.679324 0.224065 1.888908 -0.153500 2.524400 -6.957300 3.643916 0.887994 -11.734431 0.991481 0.153709 -1.534557 -1.415368 0.414161 2.362147 1.617630 8.887590 8.730737 3.524086 10.722404 10.705242 -3.445600 5.980900 -1.723500 7.870909 -1.680968 4.401681 -80.619790 -0.420394 60.381301 10.372924 -29.970214 -1.866908 0.361582 0.451789 -14.750071 17.702102 -12.968306 -4.103300 -7.125000 0.000000 0.000000 -6.954600 16.074000 4.793000 -6.227953 2.174760 4.304640 84.063258 1.267951 -57.624456 4.970026 -3.534652 -0.569395 1.020867 1.460473 109.349072 -20.324301 14.448752 -4.696700 7.125000 0.000000 0.000000 6.032800 -15.165500 4.268600 
-28.258220 18.780559 9.102380 -3.187018 10.569067 2.331794 7.390058 6.283612 2.403733 -19.510047 -8.731337 -9.638565 1.146897 8.114342 28.948528 0.543943 2.031973 4.108214 0.496100 -4.515800 -12.532600 -9.733764 -7.019655 2.020421 34.645933 12.618336 -7.214883 -1.923636 -8.141978 29.769339 -0.636225 0.076071 1.812650 -0.155600 2.541700 -7.005200 3.642970 0.861750 -11.708570 0.997777 0.115321 -1.533298 -1.352756 0.396310 2.371786 1.504944 8.941087 8.722090 3.497598 10.785636 10.685994 -3.432400 6.010400 -1.738900 7.873033 -1.679536 4.402105 -80.700895 -0.556945 60.136537 10.317460 -29.948918 -1.868114 0.372426 0.456313 -14.578074 17.880401 -13.019572 -4.162700 -7.125000 0.000000 0.000000 -6.840100 16.001400 4.723700 -6.240771 2.167087 4.305058 84.088048 1.258214 -57.324821 5.059786 -3.519802 -0.568945 1.003664 1.469127 109.036197 -20.336096 14.400241 -4.687400 7.125000 0.000000 0.000000 6.023600 -15.204500 4.256900 
-28.262941 18.781073 9.098788 -3.149436 10.652544 2.305769 7.385914 6.283821 2.401831 -19.503442 -8.603719 -9.697525 1.145427 8.116595 28.961624 0.616425 1.851755 4.266012 0.496100 -4.515500 -12.531700 -9.735835 -7.021620 2.016738 34.634525 12.604702 -7.175835 -1.922106 -8.133846 29.749966 -0.614753 0.003410 1.761695 -0.154700 2.534400 -6.985200 3.630436 0.841666 -11.650985 1.002570 0.089658 -1.531172 -1.306705 0.383521 2.381853 1.430219 8.979796 8.679799 3.458833 10.836111 10.674107 -3.437700 6.036600 -1.725600 7.879438 -1.675745 4.398593 -80.748561 -0.703045 59.994035 10.279705 -29.930177 -1.868875 0.380847 0.460896 -14.435568 18.026527 -13.039118 -4.205200 -7.125000 0.000000 0.000000 -6.745900 15.964000 4.663200 -6.248146 2.162013 4.301454 84.132043 1.268169 -57.042347 5.119501 -3.476781 -0.568153 0.990768 1.472049 108.747339 -20.285723 14.371033 -4.666700 7.125000 0.000000 0.000000 6.054800 -15.235400 4.275200 
-28.267353 18.781380 9.094273 -3.129999 10.746421 2.289017 7.382752 6.283502 2.401385 -19.477858 -8.497609 -9.768741 1.143922 8.120597 28.976314 0.690748 1.667862 4.422254 0.494700 -4.509600 -12.515000 -9.738234 -7.022842 2.014364 34.644048 12.588264 -7.153494 -1.918642 -8.125118 29.723020 -0.580717 -0.110125 1.721819 -0.162700 2.599200 -7.164700 3.643036 0.823705 -11.592623 1.005922 0.066045 -1.531365 -1.291694 0.372068 2.370384 1.389136 9.006842 8.661201 3.412063 10.876366 10.646882 -3.457000 6.056600 -1.726900 7.889336 -1.677978 4.395635 -80.793649 -0.833952 59.793523 10.195308 -29.857092 -1.859650 0.390390 0.460050 -14.155989 18.178681 -13.063540 -4.249800 -7.125000 0.000000 0.000000 -6.646800 15.925400 4.599300 -6.260603 2.166890 4.300237 84.187149 1.251292 -56.773660 5.211820 -3.479569 -0.568162 0.975695 1.481305 108.458993 -20.271951 14.327300 -4.651300 7.125000 0.000000 0.000000 6.064300 -15.273000 4.277100 
-28.271150 18.782304 9.089450 -3.111840 10.836890 2.268952 7.379648 6.283326 2.400475 -19.448764 -8.379899 -9.849594 1.142909 8.126747 28.997276 0.776757 1.454418 4.579072 0.488600 -4.482100 -12.437200 -9.740298 -7.023847 2.010376 34.647113 12.564784 -7.121986 -1.913041 -8.111729 29.684777 -0.559126 -0.181374 1.684474 -0.163300 2.603800 -7.177600 3.664473 0.806339 -11.532374 1.008908 0.042829 -1.529929 -1.277800 0.360905 2.374012 1.351283 9.041721 8.618836 3.371286 10.926919 10.624098 -3.472600 6.081900 -1.716800 7.902711 -1.675089 4.391742 -80.874299 -0.967651 59.543696 10.063343 -29.738724 -1.841604 0.403444 0.455495 -13.827940 18.369917 -13.130189 -4.316100 -7.125000 0.000000 0.000000 -6.523200 15.843500 4.524300 -6.267113 2.166877 4.298476 84.198560 1.246856 -56.510372 5.346381 -3.546001 -0.567384 0.954141 1.495929 108.181267 -20.305625 14.243923 -4.637800 7.125000 0.000000 0.000000 6.042900 -15.338500 4.253200 
-28.274434 18.782612 9.085037 -3.076232 10.923267 2.247560 7.377462 6.284141 2.397365 -19.439595 -8.203966 -9.942008 1.142673 8.133408 29.024585 0.875632 1.207065 4.757691 0.498200 -4.525400 -12.559600 -9.740415 -7.024802 2.005921 34.628597 12.547854 -7.083271 -1.906966 -8.096508 29.641624 -0.537021 -0.254030 1.648327 -0.160000 2.577000 -7.103300 3.669864 0.800051 -11.473552 1.009142 0.037619 -1.526310 -1.276125 0.358099 2.389206 1.328667 9.061265 8.568140 3.321768 10.961606 10.598835 -3.496800 6.099600 -1.706000 7.916421 -1.667167 4.387199 -80.934708 -1.121605 59.352875 9.916664 -29.594549 -1.816838 0.415730 0.445895 -13.513492 18.508216 -13.231201 -4.378700 -7.125000 0.000000 0.000000 -6.435700 15.735700 4.477800 -6.272869 2.164400 4.297379 84.222952 1.250384 -56.281792 5.469457 -3.610395 -0.567277 0.940089 1.508029 107.908642 -20.305604 14.233548 -4.636300 7.125000 0.000000 0.000000 6.046400 -15.339300 4.255600 
